<?xml version="1.0" standalone="no"?><!DOCTYPE svg PUBLIC "-//W3C//DTD SVG 1.1//EN" "http://www.w3.org/Graphics/SVG/1.1/DTD/svg11.dtd"><svg t="1565094911720" class="icon" viewBox="0 0 1024 1024" version="1.1" xmlns="http://www.w3.org/2000/svg" p-id="26778" xmlns:xlink="http://www.w3.org/1999/xlink" width="200" height="200"><defs><style type="text/css"></style></defs><path d="M726 492c19.882 0 36-16.118 36-36s-16.118-36-36-36-36 16.118-36 36 16.118 36 36 36z m-285 0c19.882 0 36-16.118 36-36s-16.118-36-36-36-36 16.118-36 36 16.118 36 36 36z m142 0c19.882 0 36-16.118 36-36s-16.118-36-36-36-36 16.118-36 36 16.118 36 36 36z m297-300H144c-39.764 0-72 32.235-72 72v496c0 39.764 32.236 72 72 72h736c39.764 0 72-32.235 72-72V264c0-39.765-32.236-72-72-72z m0 568H144V264h736v496zM298 492c19.882 0 36-16.118 36-36s-16.118-36-36-36-36 16.118-36 36 16.118 36 36 36z m0 156h428c19.882 0 36-16.118 36-36s-16.118-36-36-36H298c-19.882 0-36 16.118-36 36s16.118 36 36 36z" p-id="26779" fill="#bfbfbf"></path></svg>