<?xml version="1.0" standalone="no"?><!DOCTYPE svg PUBLIC "-//W3C//DTD SVG 1.1//EN" "http://www.w3.org/Graphics/SVG/1.1/DTD/svg11.dtd"><svg t="1563500812390" class="icon" viewBox="0 0 1024 1024" version="1.1" xmlns="http://www.w3.org/2000/svg" p-id="3247" xmlns:xlink="http://www.w3.org/1999/xlink" width="200" height="200"><defs><style type="text/css"></style></defs><path d="M573.648 599.308c-54.285 48.053-125.699 77.228-203.936 77.228-169.889 0-307.611-137.568-307.611-307.268 0-169.7 137.722-307.268 307.611-307.268 169.889 0 307.611 137.568 307.611 307.268 0 85.044-34.589 162.020-90.482 217.654l372.367 359.59c3.563 3.441 3.54 9.246 0.174 12.732-3.467 3.591-9.197 3.683-12.73 0.271l-373.004-360.205zM369.712 658.462c159.896 0 289.517-129.476 289.517-289.193s-129.621-289.193-289.517-289.193c-159.895 0-289.517 129.476-289.517 289.193 0 159.717 129.622 289.193 289.517 289.193z" p-id="3248" fill="#ffffff"></path></svg>