<?xml version="1.0" standalone="no"?><!DOCTYPE svg PUBLIC "-//W3C//DTD SVG 1.1//EN" "http://www.w3.org/Graphics/SVG/1.1/DTD/svg11.dtd"><svg t="1564907584333" class="icon" viewBox="0 0 1024 1024" version="1.1" xmlns="http://www.w3.org/2000/svg" p-id="2864" xmlns:xlink="http://www.w3.org/1999/xlink" width="200" height="200"><defs><style type="text/css"></style></defs><path d="M512 3.2C231.424 3.2 3.2 231.488 3.2 512S231.424 1020.8 512 1020.8c280.512 0 508.8-228.224 508.8-508.8C1020.8 231.488 792.512 3.2 512 3.2zM944.448 512c0 105.408-38.016 202.24-100.928 277.312L234.56 180.608A430.528 430.528 0 0 1 512 79.552 432.896 432.896 0 0 1 944.448 512zM79.488 512c0-105.536 38.08-202.304 101.12-277.44l608.896 608.832A430.464 430.464 0 0 1 512 944.512 432.96 432.96 0 0 1 79.488 512z" p-id="2865" fill="#8a8a8a"></path></svg>