<?xml version="1.0" standalone="no"?><!DOCTYPE svg PUBLIC "-//W3C//DTD SVG 1.1//EN" "http://www.w3.org/Graphics/SVG/1.1/DTD/svg11.dtd"><svg t="1564300029718" class="icon" viewBox="0 0 1024 1024" version="1.1" xmlns="http://www.w3.org/2000/svg" p-id="1987" xmlns:xlink="http://www.w3.org/1999/xlink" width="200" height="200"><defs><style type="text/css"></style></defs><path d="M568.86784 204.193792H289.247232c-47.535104 0-83.88608 36.350976-83.88608 83.88608v279.620608c0 16.777216 11.185152 27.961344 27.962368 27.961344s27.962368-11.184128 27.962368-27.961344V288.079872c0-16.777216 11.185152-27.962368 27.962368-27.962368h279.620608c16.777216 0 27.961344-11.184128 27.961344-27.961344-0.001024-16.777216-11.185152-27.962368-27.962368-27.962368z m221.80864 224.144384c-16.777216 0-28.678144 11.184128-28.678144 27.961344v279.620608c0 16.777216-11.185152 27.962368-27.962368 27.962368H454.41536c-16.777216 0-27.961344 11.185152-27.961344 27.962368s11.184128 27.962368 27.961344 27.962368h308.299776c30.757888 0 55.923712-25.165824 55.923712-55.923712V456.29952c0-16.777216-11.185152-27.961344-27.962368-27.961344z" fill="#ffffff" p-id="1988"></path></svg>