<?xml version="1.0" standalone="no"?><!DOCTYPE svg PUBLIC "-//W3C//DTD SVG 1.1//EN" "http://www.w3.org/Graphics/SVG/1.1/DTD/svg11.dtd"><svg t="1565094683911" class="icon" viewBox="0 0 1024 1024" version="1.1" xmlns="http://www.w3.org/2000/svg" p-id="6857" xmlns:xlink="http://www.w3.org/1999/xlink" width="200" height="200"><defs><style type="text/css"></style></defs><path d="M887.5 136.5h-751C61.1 136.5 0 197.7 0 273.1V751c0 75.4 61.1 136.5 136.5 136.5h750.9c75.4 0 136.5-61.1 136.5-136.5V273.1c0.1-75.4-61-136.6-136.4-136.6z m68.2 614.4c0 37.6-30.6 68.3-68.3 68.3H136.5c-37.6 0-68.3-30.6-68.3-68.3V273.1c0-37.6 30.6-68.3 68.3-68.3h750.9c37.6 0 68.3 30.6 68.3 68.3v477.8z" fill="#bfbfbf" p-id="6858"></path><path d="M375.5 716.8L716.8 512 375.5 307.2z" fill="#bfbfbf" p-id="6859"></path></svg>