<?xml version="1.0" standalone="no"?><!DOCTYPE svg PUBLIC "-//W3C//DTD SVG 1.1//EN" "http://www.w3.org/Graphics/SVG/1.1/DTD/svg11.dtd"><svg t="1565158822929" class="icon" viewBox="0 0 1024 1024" version="1.1" xmlns="http://www.w3.org/2000/svg" p-id="2131" xmlns:xlink="http://www.w3.org/1999/xlink" width="200" height="200"><defs><style type="text/css"></style></defs><path d="M350.82998518 162.08630518l-96.96091654-93.98347851s-15.14609778-18.64135111 10.48576-39.74232494c25.76131161-20.97152 27.05584987-11.65084445 35.7292563-5.82542223 8.67340642 5.82542222 144.21156347 139.55122569 144.21156345 139.55122568h-93.46566321zM672.91110717 165.58155852l96.96091653-93.98347852s15.14609778-18.64135111-10.48576-39.74232494c-25.63185778-20.97152-27.05584987-11.65084445-35.72925629-5.82542223-8.67340642 5.82542222-144.21156347 139.55122569-144.21156346 139.55122569h93.46566322z" p-id="2132" fill="#bfbfbf"></path><path d="M1036.80581531 339.56750222c-3.49525333-147.18900148-131.39563457-175.15102815-131.39563456-175.15102814s-655.29527309-5.30760691-791.99851458 0c-136.70324148 38.5772405-126.21748148 175.15102815-126.21748148 175.15102814s1.81235358 292.56564939-0.12945383 440.66082765c14.7577363 148.09517827 128.93601185 171.65577482 128.93601186 171.65577482s45.56774717 0.9061768 78.83738075 0.90617679c3.49525333 9.5795832 6.08432987 56.05350717 57.86586072 56.05350716 51.65207703 0 57.86586075-56.05350717 57.86586075-56.05350716s378.52299061-1.81235358 409.98027061-1.81235358c1.81235358 15.79336691 9.5795832 58.6425837 61.36111408 57.86586074 51.65207703-0.9061768 55.14733037-61.36111408 55.14733037-61.36111407s17.47626667-1.81235358 70.0345205 0c122.59277431-22.78387358 129.71273482-166.47762173 129.71273481-166.47762174s-1.68289975-294.24854914 0-441.43755061z m-105.50486914 468.4934005c0 23.17223506-18.38244347 42.07249383-41.0368632 42.07249381H144.22167703c-22.65441975 0-41.0368632-18.77080494-41.0368632-42.07249381V313.93564445c0-23.17223506 18.38244347-42.07249383 41.0368632-42.07249384h746.04240594c22.65441975 0 41.0368632 18.77080494 41.0368632 42.07249384v494.12525827z" p-id="2133" fill="#bfbfbf"></path><path d="M181.76328691 453.48687013l219.03587556-42.07249383 16.57008988 82.33263407-217.22352198 42.07249382zM863.33768691 453.48687013l-219.03587555-42.07249383-16.69954371 82.33263407 217.35297582 42.07249382zM417.36925235 657.63555555s48.1568237 86.73406419 101.62125432-28.09148049c51.65207703 112.10701431 108.61176098 29.77438025 108.61176098 29.77438025l32.3634568 21.10097383s-60.45493728 97.21982419-140.19849482 23.69005036c-67.44544395 73.52977383-138.38614124-23.43114272-138.38614124-23.4311427l35.98816396-23.04278125z" p-id="2134" fill="#bfbfbf"></path></svg>